<svg xmlns="http://www.w3.org/2000/svg" viewBox="0 0 512 512">
  <defs>
    <radialGradient id="g" cx="50%" cy="40%" r="70%">
      <stop offset="0" stop-color="#7df9ff"/>
      <stop offset="0.45" stop-color="#3067ff"/>
      <stop offset="1" stop-color="#060914"/>
    </radialGradient>
    <linearGradient id="flame" x1="0" x2="0" y1="0" y2="1">
      <stop offset="0" stop-color="#fff7a8"/>
      <stop offset="0.45" stop-color="#ff7b2f"/>
      <stop offset="1" stop-color="#ff1e7a"/>
    </linearGradient>
  </defs>
  <rect width="512" height="512" rx="110" fill="url(#g)"/>
  <circle cx="390" cy="95" r="28" fill="#dffcff" opacity=".85"/>
  <path d="M256 56c-58 44-88 105-86 184l-56 49 25 45 62-19 55 92 55-92 62 19 25-45-56-49c2-79-28-140-86-184z" fill="#eaf7ff" stroke="#0b1430" stroke-width="12"/>
  <path d="M236 164a20 20 0 1 0 40 0 20 20 0 0 0-40 0z" fill="#1c95ff" stroke="#0b1430" stroke-width="8"/>
  <path d="M228 392c11 51 28 74 28 74s17-23 28-74c-14 8-42 8-56 0z" fill="url(#flame)"/>
  <path d="M86 420c73-23 269-25 340 0" fill="none" stroke="#7df9ff" stroke-width="18" stroke-linecap="round" opacity=".8"/>
</svg>
